<svg xmlns="http://www.w3.org/2000/svg" width="1280" height="800" viewBox="0 0 1280 800">
  <defs><linearGradient id="bg" x1="0" y1="0" x2="1" y2="1"><stop stop-color="#edf8ef"/><stop offset="1" stop-color="#d7eadc"/></linearGradient><filter id="s"><feDropShadow dx="0" dy="18" stdDeviation="22" flood-color="#254b37" flood-opacity=".16"/></filter></defs>
  <rect width="1280" height="800" fill="url(#bg)"/><circle cx="1160" cy="80" r="270" fill="#f0d6bd" opacity=".72"/>
  <rect x="72" y="58" width="1136" height="684" rx="42" fill="#fff" filter="url(#s)"/>
  <rect x="110" y="96" width="92" height="92" rx="28" fill="#2f6f50"/><path d="M156 174v-46" stroke="#fff" stroke-width="8" stroke-linecap="round"/><ellipse cx="143" cy="140" rx="18" ry="13" fill="#cfe8d8" transform="rotate(35 143 140)"/><ellipse cx="170" cy="130" rx="19" ry="14" fill="#f0b88a" transform="rotate(-35 170 130)"/>
  <text x="226" y="158" fill="#183c2d" font-family="Arial,sans-serif" font-size="54" font-weight="800">EmoSeed</text>
  <text x="112" y="314" fill="#183c2d" font-family="Arial,sans-serif" font-size="72" font-weight="900">내 마음을 돌보는</text><text x="112" y="406" fill="#2f6f50" font-family="Arial,sans-serif" font-size="72" font-weight="900">작은 디지털 정원</text>
  <g transform="translate(112 500)"><rect width="235" height="106" rx="24" fill="#edf8ef"/><rect x="255" width="235" height="106" rx="24" fill="#fff4e9"/><rect x="510" width="235" height="106" rx="24" fill="#edf8ef"/><rect x="765" width="235" height="106" rx="24" fill="#fff4e9"/><text x="22" y="59" fill="#2f6f50" font-family="Arial,sans-serif" font-size="25" font-weight="700">🌱 식물 테스트</text><text x="277" y="59" fill="#80583d" font-family="Arial,sans-serif" font-size="25" font-weight="700">🔮 오늘의 운세</text><text x="532" y="59" fill="#2f6f50" font-family="Arial,sans-serif" font-size="25" font-weight="700">🌼 식물 이름</text><text x="787" y="59" fill="#80583d" font-family="Arial,sans-serif" font-size="25" font-weight="700">💘 식물 궁합</text></g>
</svg>