<svg xmlns="http://www.w3.org/2000/svg" width="1280" height="800" viewBox="0 0 1280 800" role="img" aria-labelledby="title desc"><title id="title">LavaLabs Space service preview</title><desc id="desc">A dark premium browser interface showing a 360 degree virtual space experience.</desc><defs><linearGradient id="bg" x1="0" y1="0" x2="1" y2="1"><stop offset="0" stop-color="#081117"/><stop offset="0.56" stop-color="#10242c"/><stop offset="1" stop-color="#153a40"/></linearGradient><radialGradient id="glow" cx="78%" cy="28%" r="58%"><stop offset="0" stop-color="#64d7d2" stop-opacity=".38"/><stop offset="1" stop-color="#64d7d2" stop-opacity="0"/></radialGradient><linearGradient id="floor" x1=".5" y1="0" x2=".5" y2="1"><stop offset="0" stop-color="#29383e"/><stop offset="1" stop-color="#0d171c"/></linearGradient><filter id="shadow" x="-20%" y="-20%" width="140%" height="140%"><feDropShadow dx="0" dy="18" stdDeviation="20" flood-color="#000" flood-opacity=".35"/></filter></defs><rect width="1280" height="800" fill="url(#bg)"/><rect width="1280" height="800" fill="url(#glow)"/><g opacity=".13" stroke="#b7f3ef" stroke-width="1"><path d="M0 130H1280M0 260H1280M0 390H1280M0 520H1280M0 650H1280"/><path d="M160 0V800M320 0V800M480 0V800M640 0V800M800 0V800M960 0V800M1120 0V800"/></g><g filter="url(#shadow)"><rect x="70" y="66" width="1140" height="664" rx="28" fill="#0d171d" stroke="#91e5e1" stroke-opacity=".22"/><rect x="70" y="66" width="1140" height="66" rx="28" fill="#14252d"/><rect x="70" y="104" width="1140" height="28" fill="#14252d"/><circle cx="110" cy="99" r="7" fill="#ff7d6e"/><circle cx="134" cy="99" r="7" fill="#f6ca68"/><circle cx="158" cy="99" r="7" fill="#71d799"/><rect x="430" y="83" width="420" height="32" rx="16" fill="#0b1419" stroke="#ffffff" stroke-opacity=".08"/><text x="640" y="104" fill="#b7c8cd" font-family="Arial, sans-serif" font-size="14" text-anchor="middle">space.lavalabs.co.kr</text><rect x="1120" y="84" width="54" height="30" rx="15" fill="#73ddd8" fill-opacity=".14" stroke="#73ddd8" stroke-opacity=".36"/><text x="1147" y="104" fill="#9ceae6" font-family="Arial, sans-serif" font-size="12" font-weight="700" text-anchor="middle">LIVE</text></g><clipPath id="viewerClip"><rect x="90" y="150" width="1100" height="560" rx="18"/></clipPath><g clip-path="url(#viewerClip)"><rect x="90" y="150" width="1100" height="560" fill="#18282f"/><polygon points="90,150 1190,150 1004,420 276,420" fill="#304249"/><polygon points="90,150 276,420 276,710 90,710" fill="#22353c"/><polygon points="1190,150 1004,420 1004,710 1190,710" fill="#1c3037"/><polygon points="276,420 1004,420 1190,710 90,710" fill="url(#floor)"/><g stroke="#9ceae6" stroke-opacity=".18" fill="none"><path d="M640 420 530 710M640 420 750 710M640 420 380 710M640 420 900 710"/><path d="M238 610H1042M196 660H1084"/></g><rect x="430" y="218" width="420" height="148" rx="8" fill="#0b151a" stroke="#a4eeea" stroke-opacity=".22"/><text x="640" y="274" fill="#ffffff" font-family="Arial, sans-serif" font-size="42" font-weight="800" text-anchor="middle" letter-spacing="2">LAVALABS</text><text x="640" y="319" fill="#8fe3df" font-family="Arial, sans-serif" font-size="28" font-weight="700" text-anchor="middle" letter-spacing="12">SPACE</text><g fill="#b6ece9" fill-opacity=".16" stroke="#b6ece9" stroke-opacity=".24"><rect x="170" y="292" width="144" height="208" rx="9"/><rect x="966" y="292" width="144" height="208" rx="9"/><rect x="342" y="468" width="136" height="106" rx="9"/><rect x="802" y="468" width="136" height="106" rx="9"/></g><g fill="#d4f7f5" fill-opacity=".7"><circle cx="242" cy="346" r="14"/><circle cx="242" cy="395" r="14"/><circle cx="242" cy="444" r="14"/><circle cx="1038" cy="346" r="14"/><circle cx="1038" cy="395" r="14"/><circle cx="1038" cy="444" r="14"/></g><g><circle cx="505" cy="500" r="22" fill="#79e1dc"/><circle cx="505" cy="500" r="9" fill="#0d1a20"/><rect x="455" y="532" width="100" height="32" rx="16" fill="#071116" fill-opacity=".82"/><text x="505" y="553" fill="#c8f8f5" font-family="Arial, sans-serif" font-size="13" font-weight="700" text-anchor="middle">PRODUCT INFO</text></g><g><circle cx="840" cy="392" r="22" fill="#79e1dc"/><path d="m833 392 9-8v16z" fill="#0d1a20"/><rect x="790" y="424" width="100" height="32" rx="16" fill="#071116" fill-opacity=".82"/><text x="840" y="445" fill="#c8f8f5" font-family="Arial, sans-serif" font-size="13" font-weight="700" text-anchor="middle">NEXT SPACE</text></g><rect x="110" y="170" width="210" height="48" rx="24" fill="#081116" fill-opacity=".76" stroke="#96e8e4" stroke-opacity=".2"/><circle cx="140" cy="194" r="9" fill="#79e1dc"/><text x="164" y="200" fill="#e7fffd" font-family="Arial, sans-serif" font-size="15" font-weight="700">INTERACTIVE 360° TOUR</text><circle cx="1114" cy="646" r="42" fill="#081116" fill-opacity=".75" stroke="#8fe3df" stroke-opacity=".34"/><text x="1114" y="653" fill="#9ceae6" font-family="Arial, sans-serif" font-size="20" font-weight="800" text-anchor="middle">360°</text></g><g font-family="Arial, sans-serif"><rect x="108" y="744" width="210" height="34" rx="17" fill="#72ddd8" fill-opacity=".13"/><text x="213" y="766" fill="#9ceae6" font-size="13" font-weight="700" text-anchor="middle">SPACE · PHOTO · WEB</text><text x="1170" y="766" fill="#cfe5e4" fill-opacity=".66" font-size="13" text-anchor="end">From view to action</text></g></svg>